<svg id="visual" viewBox="0 0 900 600" width="900" height="600" xmlns="http://www.w3.org/2000/svg" xmlns:xlink="http://www.w3.org/1999/xlink" version="1.1"><rect x="0" y="0" width="900" height="600" fill="#191F26"></rect><g transform="translate(-47.98191233401536 26.74327067338453)"><path d="M277.7 -506.9C352.8 -437.7 401.6 -348.8 460.6 -261.1C519.6 -173.3 588.8 -86.7 591.4 1.5C594 89.7 529.9 179.3 467.4 261C404.9 342.7 344 416.4 266.3 467.8C188.7 519.1 94.3 548.1 -8.9 563.5C-112.2 578.9 -224.3 580.9 -285.2 519.9C-346.1 458.9 -355.7 334.9 -383.5 237.8C-411.2 140.6 -457.1 70.3 -479.8 -13.1C-502.5 -96.5 -502 -193 -469.1 -281.3C-436.3 -369.7 -371.1 -449.8 -287.6 -514.1C-204 -578.3 -102 -626.7 -0.3 -626.1C101.3 -625.5 202.7 -576 277.7 -506.9" fill="#FFE75C"></path></g></svg>